<svg viewBox="0 0 1000 150" xmlns="http://www.w3.org/2000/svg" xml:space="preserve" style="fill-rule:evenodd;clip-rule:evenodd;stroke-linejoin:round;stroke-miterlimit:2"><g transform="matrix(1 0 0 1.03039 -.81 0)"><path style="fill:none" d="M.81 0h1000v145.576H.81z"/><clipPath id="a"><path d="M.81 0h1000v145.576H.81z"/></clipPath><g clip-path="url(#a)"><path d="M410.37 323.2V75h87.72l51 130.9h6.8L606.55 75H696v248.2h-62.59V111.38l9.86.68-63.92 161.16h-57.46l-64.26-161.16 10.54-.68V323.2h-57.8ZM797.63 328c-13.153 0-24.82-2.38-35-7.14a56.005 56.005 0 0 1-24-20.57c-5.753-8.973-8.63-19.697-8.63-32.17 0-14.08 3.73-25.453 11.19-34.12 7.46-8.667 17.773-15.07 30.94-19.21 13.14-4.08 28.213-6.12 45.22-6.12h36.38v32h-36.38c-8.387 0-14.847 2.097-19.38 6.29-4.533 4.193-6.8 9.803-6.8 16.83 0 6.8 2.267 12.297 6.8 16.49 4.533 4.193 10.993 6.29 19.38 6.29 4.969.097 9.9-.889 14.45-2.89a23.17 23.17 0 0 0 10.37-10c2.72-4.76 4.307-11.333 4.76-19.72l14.28 13.6c-1.14 12.92-4.257 23.857-9.35 32.81a51.845 51.845 0 0 1-21.08 20.57c-8.96 4.707-20.01 7.06-33.15 7.06Zm59.5-4.76v-55.12h-10.2V209.3c0-8.613-1.983-15.017-5.95-19.21-3.967-4.193-10.483-6.29-19.55-6.29-4.307 0-10.64.113-19 .34-8.36.227-17.2.56-26.52 1-9.3.46-17.8.913-25.5 1.36v-51.66c5.44-.453 11.9-.907 19.38-1.36 7.48-.453 15.243-.787 23.29-1a850.24 850.24 0 0 1 22.27-.34c19.26 0 35.637 2.833 49.13 8.5 13.493 5.667 23.807 14.167 30.94 25.5 7.14 11.333 10.71 25.727 10.71 43.18V323.2l-49 .04ZM932.61 180.4v-44.88h85.68v44.88h-85.68Zm49.3-59.84c-11.333 0-19.667-2.89-25-8.67-5.333-5.78-8-13.203-8-22.27 0-9.06 2.667-16.483 8-22.27 5.333-5.787 13.55-8.677 24.65-8.67 11.333 0 19.61 2.89 24.82 8.67 5.21 5.78 7.82 13.203 7.82 22.27s-2.61 16.49-7.82 22.27c-5.21 5.78-13.37 8.67-24.47 8.67Zm-25.5 202.64V135.52h61.88V323.2h-61.88ZM1063.85 323.2V135.52h49v80.58h-2.72c0-19.487 2.49-35.637 7.48-48.45 4.99-12.813 12.41-22.39 22.27-28.73s21.82-9.513 35.87-9.52h2.72c21.33 0 37.82 7.083 49.47 21.25 11.65 14.167 17.48 35.87 17.51 65.11V323.2h-61.88V214.06c0-8.613-2.55-15.697-7.65-21.25-5.1-5.553-12.07-8.33-20.92-8.33-8.84 0-15.92 2.777-21.25 8.33s-7.99 12.863-8 21.93V323.2h-61.9ZM1265.8 180.4v-44.88h136v44.88h-136Zm110.5 145.52c-20.4 0-36.66-2.493-48.79-7.48a48.346 48.346 0 0 1-26.35-24.82c-5.44-11.56-8.16-27.2-8.16-46.92l.34-160.14h57.12l-.34 161.84c0 8.393 2.21 14.797 6.63 19.21s10.82 6.623 19.21 6.63h25.84v51.68h-25.5ZM1488.5 328c-13.15 0-24.82-2.38-35-7.14a56.005 56.005 0 0 1-24-20.57c-5.78-8.947-8.67-19.657-8.67-32.13 0-14.053 3.74-25.443 11.22-34.17s17.8-15.143 30.95-19.25c13.14-4.08 28.21-6.12 45.22-6.12h36.38v32h-36.38c-8.39 0-14.85 2.097-19.38 6.29-4.53 4.193-6.81 9.79-6.84 16.79 0 6.8 2.27 12.297 6.8 16.49 4.53 4.193 10.99 6.29 19.38 6.29 4.97.097 9.9-.889 14.45-2.89a23.195 23.195 0 0 0 10.37-10c2.72-4.76 4.31-11.333 4.76-19.72l14.28 13.6c-1.14 12.92-4.26 23.857-9.35 32.81a51.827 51.827 0 0 1-21.08 20.57c-8.93 4.767-19.97 7.15-33.11 7.15Zm59.5-4.76v-55.12h-10.2V209.3c0-8.613-2-15.017-6-19.21-4-4.193-10.52-6.29-19.55-6.29-4.31 0-10.64.113-19 .34-8.36.227-17.2.56-26.52 1-9.33.46-17.83.913-25.5 1.36v-51.66c5.44-.453 11.9-.907 19.38-1.36a685.37 685.37 0 0 1 23.29-1c8.04-.22 15.46-.333 22.27-.34 19.26 0 35.64 2.833 49.13 8.5 13.49 5.667 23.81 14.167 30.94 25.5 7.14 11.333 10.71 25.727 10.71 43.18V323.2l-48.95.04ZM1623.48 180.4v-44.88h85.68v44.88h-85.68Zm49.3-59.84c-11.33 0-19.67-2.89-25-8.67-5.33-5.78-8-13.203-8-22.27 0-9.06 2.67-16.483 8-22.27 5.33-5.787 13.55-8.677 24.65-8.67 11.33 0 19.61 2.89 24.82 8.67 5.21 5.78 7.82 13.203 7.82 22.27s-2.61 16.49-7.82 22.27c-5.21 5.78-13.37 8.67-24.47 8.67Zm-25.5 202.64V135.52h61.88V323.2h-61.88ZM1754.72 323.2V135.52h49v80.58H1801c0-19.487 2.49-35.637 7.48-48.45 4.99-12.813 12.41-22.39 22.27-28.73s21.82-9.513 35.87-9.52h2.71c21.33 0 37.83 7.083 49.48 21.25 11.65 14.167 17.49 35.87 17.51 65.11V323.2h-61.92V214.06c0-8.613-2.55-15.697-7.65-21.25-5.1-5.553-12.07-8.33-20.92-8.33-8.83 0-15.91 2.777-21.25 8.33s-8.01 12.863-8 21.93V323.2h-61.86ZM121.76 300.8v-.05c0-17.143-14.107-31.25-31.25-31.25s-31.25 14.107-31.25 31.25S73.367 332 90.51 332h.01c17.116-.016 31.202-14.084 31.24-31.2ZM308.07 108.56a4.325 4.325 0 0 1 3.13-1.36 4.84 4.84 0 0 1 1.84.37 4.408 4.408 0 0 1 2.82 4.21v189c-.303 16.929-14.313 30.691-31.245 30.691-16.932 0-30.942-13.762-31.245-30.691V183.9A49.467 49.467 0 0 1 268 148.68l40.07-40.12ZM187.57 332c-17.133-.016-31.228-14.107-31.25-31.24v-19.38a49.505 49.505 0 0 1 14.59-35.23L211 206a4.282 4.282 0 0 1 3.12-1.36 4.932 4.932 0 0 1 1.85.37 4.419 4.419 0 0 1 2.81 4.21v91.58c-.044 17.103-14.107 31.162-31.21 31.2ZM282.29 82.78a4.302 4.302 0 0 0 1.36-3.13 4.925 4.925 0 0 0-.37-1.84 4.419 4.419 0 0 0-4.21-2.81h-189c-16.929.303-30.691 14.313-30.691 31.245 0 16.932 13.762 30.942 30.691 31.245H207a49.55 49.55 0 0 0 35.23-14.59l40.06-40.12ZM58.81 203.29c.022 17.129 14.111 31.218 31.24 31.24h19.43a49.506 49.506 0 0 0 35.22-14.59l40.12-40.11a4.325 4.325 0 0 0 1.36-3.13 4.925 4.925 0 0 0-.37-1.84 4.43 4.43 0 0 0-4.22-2.81H90.05c-17.129.022-31.218 14.111-31.24 31.24Z" style="fill:#152;fill-rule:nonzero" transform="matrix(.53262 0 0 .51691 -29.703 -30.332)"/></g></g></svg>